<?xml version="1.0" encoding="utf-8"?>
<!-- Generator: Adobe Illustrator 27.5.0, SVG Export Plug-In . SVG Version: 6.00 Build 0)  -->
<svg version="1.1" xmlns="http://www.w3.org/2000/svg" xmlns:xlink="http://www.w3.org/1999/xlink" x="0px" y="0px"
	 viewBox="0 0 288 100.71" style="enable-background:new 0 0 288 100.71;" xml:space="preserve">
<style type="text/css">
	.st0{fill:#CDB58F;}
	.st1{fill:#5B3B1B;}
	.st2{fill:#845F41;}
	.st3{fill:#A27D56;}
	.st4{fill:#BD9C72;}
</style>
<g id="Layer_3">
</g>
<g id="Layer_2">
</g>
<g id="Layer_4">
	<g>
		<path class="st0" d="M62.28,38.01c0,0,4.81-9.3,7.13-11.32c2.33-2.02,6.36-4.65,6.82-7.13s7.13-6.98,9.61-7.13
			c2.48-0.16,15.66-0.47,17.98,0c2.33,0.47,14.11,3.41,15.66,5.89c1.55,2.48,7.44,6.05,7.91,8.22c0.47,2.17,4.84,9.97,7.16,11.67
			c2.33,1.71,1.96,11.94,1.65,13.8c-0.31,1.86-0.52,4.3-1.14,7.86c-0.62,3.57-2.05,1.34-1.9,7.08s-3.76,6.57-4.07,8.43
			c-0.31,1.86-2.87,7.2-6.44,6.89s-10.61,4.58-16.19,3.96c-5.58-0.62-15.35,1.24-17.83-0.62c-2.48-1.86-7.44-3.72-9.46-4.03
			c-2.02-0.31-6.82-1.86-7.29-4.03c-0.47-2.17-3.88-8.99-5.12-10.23c-1.24-1.24-4.34-9.61-4.5-11.94
			C62.12,53.05,60.43,41.41,62.28,38.01z"/>
		<path class="st0" d="M65.49,32.21c0,0-8.18-5.99-13.29-5.83s-7.75-3.57-10.85-1.24c-3.1,2.33-4.65,2.17-6.51,2.17
			s-6.98,1.4-9.15,3.88s-3.57,6.2-5.12,6.2s-5.27,2.02-5.74,4.81c-0.47,2.79-4.65,7.75-4.81,15.66s1.58,12,1.74,14.79
			c0.16,2.79,1.52,6.76,2.92,8s4.55,2.87,5.64,5.81s2.73,7.33,8,6.71c5.27-0.62,11.32,3.29,13.8,1.9c2.48-1.4,4.65-1.86,9.46-1.86
			s13.95-0.31,16.43-2.95c2.48-2.64,8.06-3.88,8.53-5.74c0.47-1.86,1.22-3.26,1.22-3.26"/>
		<path class="st1" d="M59.44,69.17c0,0-7.14,3.84-4.26,5.38c2.88,1.54,5.34,2.92,7.03,2.77s6.15-2.15,6.15-2.92
			s0.15-6.15-2.15-6.15C63.89,68.25,59.44,69.17,59.44,69.17z"/>
		<path class="st2" d="M43.66,92.56c0,0,7.96,1.82,8.99,0c1.03-1.82,0.41-6.63,4.96-6.99s7.85-0.36,9.3-1.6
			c1.45-1.25,4.88-6.22,4.88-6.22l7.39,4.53c0,0-11.27,11.04-17.76,11.09C54.93,93.42,46.86,96.52,43.66,92.56z"/>
		<path class="st2" d="M20.32,89.74c0,0,9.86,10.5,27.15,4.04c0,0-2.42-2.91-6.62-1.78s-10.5,0.16-11.31-0.48
			c-0.81-0.65-1.78-3.23-3.23-3.07C24.85,88.61,20.32,89.74,20.32,89.74z"/>
		<path class="st3" d="M13.37,43.36c0,0-5.66,16.64-3.07,27.79s3.39,7.27,5.98,11.15c2.59,3.88,4.04,7.43,4.04,7.43
			s5.49,0.97,5.98-1.29c0.48-2.26,0-4.52-3.23-6.62s-5.69-7.11-5.02-10.34c0.66-3.23-4.35-8.24-3.54-14.87
			c0.81-6.62,2.91-15.51,1.78-14.87S13.37,43.36,13.37,43.36z"/>
		<path class="st4" d="M77.93,16.77c0,0,20.31-10.54,33.64-2.02s10.23,8.37,10.23,8.37s-0.47,3.26,1.86,6.2
			c2.33,2.95,5.12,6.67,1.09,7.29c-4.03,0.62-9.15-2.64-14.73-4.03c-5.58-1.4-3.54-6.82-7.66-6.98c-4.12-0.16,0.53-8.06-2.73-7.44
			c-3.26,0.62-12.71,1.09-15.35,1.55c-2.64,0.47-6.98,4.19-9.46,6.2c-2.48,2.02-5.27,3.1-4.65,7.13c0.62,4.03-0.16,9.15-3.1,9.3
			c-2.95,0.16-3.26,8.53-1.71,12.09c1.55,3.57-3.1,5.12-3.1,5.12s-3.1-19.84,0-23.1C65.38,33.2,67.07,20.74,77.93,16.77z"/>
		<path class="st3" d="M64.34,67.16c0,0,3.88,10.9,7.93,12.8c4.04,1.9,5.04,3.95,7.86,3.95c2.82,0,9.29,0.79,9.61,2.53
			c0.32,1.74,1.13,2.69,8.57,1.42c7.44-1.26,18.12-0.47,19.73-2.05s11.65-3.48,11.97-6.95c0.32-3.48,2.91-5.37,5.18-9
			c2.26-3.63,0.49-1.58,1.29-6.16c0.81-4.58,3.07-3,3.07-8.37s0.16-8.53-2.91-10.27c-3.07-1.74-5.66-11.06-6.79-13.59
			c-1.13-2.53-7.6-8.69-7.6-8.69s-0.63,2.25,3.48,8.31c4.12,6.06,1.98,5.44-0.41,5.43c-2.39-0.01,0.54,3.95,2.13,3.95
			s4.82,0.79,4.5,6c-0.32,5.21,1.62,9.95-0.81,10.11c-2.43,0.16-3.5,2.37-3.69,5.53c-0.19,3.16,0.78,6.64-2.29,6.64
			s-3.23,7.9-6.63,7.27c-3.4-0.63-2.75,8.06-9.54,6.16s-5.18,5.21-7.93,2.84s-1.62-11.37-3.88-8.06c-2.26,3.32-0.76,6-4.1,5.37
			c-3.34-0.63-10.62-0.79-11.91-5.06c-1.29-4.27-0.97-6.95-4.85-7.27C72.43,69.69,67.9,64.48,64.34,67.16z"/>
		<path class="st4" d="M81.43,35.49c-3.5,2.98-5.36-6.16-5.2,1.59s-2.19,9.77-0.01,13.33s0.94,6.36,3.26,8.22s2.95,3.69,2.79,6.11
			c-0.16,2.42,2.33,5.05,3.41,2.42c1.09-2.64,0.93-5.89,2.64-7.6c1.71-1.71,1.75-2.33,5.53-0.93c3.78,1.4,7.5,2.02,7.34-1.4
			c-0.16-3.41,2.48-4.03-1.24-4.34s-6.67-4.96-4.19-4.96c2.48,0,2.95-6.2,3.1-8.37s5.43-12.87-1.24-11.32
			c-6.67,1.55-8.84,4.65-10.7,4.96C85.07,33.51,81.43,35.49,81.43,35.49z"/>
		<path class="st4" d="M103.98,45.92c0,0-2.33,2.03,0,5.36c2.33,3.33,4.5,5.65,2.64,7.36s-1.54,5.12,0.7,5.12
			c2.24,0,13.41-0.47,13.41-4.19s2.48-5.41,0-8.29c-2.48-2.88-2.64-5.98-6.2-5.36C110.95,46.54,103.98,45.92,103.98,45.92z"/>
		<path class="st4" d="M37.58,33.49c0,0-4.33,2.85-3.68,5.17c0.65,2.32,1.54,3.09-1.13,3.06s-3.56-0.39-3.56,1.39
			s1.78,3.74-0.71,4.1s-4.28,2.24-3.74,4.06c0.53,1.82,1.12,1.88,1.72,4.08c0.6,2.2,3.27,6.12,1.67,6.66
			c-1.6,0.53,4.1,0.64,4.1-2.44s-1.07-5.93,0-6.65c1.07-0.71,5.17-3.74,5.35-3.03c0.18,0.71,1.25-3.25,3.03-1.71
			c1.78,1.53,6.06,4.49,7.84,3.1c1.78-1.39,3.92-4.49,5.88-5.44c1.96-0.94,4.63-0.94,4.28-3.08c-0.36-2.14,2.7-2.43,3.67-6.3
			c0.97-3.86-4.38-6.54-6.88-6.36s-3.39,3.92-6.42,3.74s-4.15-2.14-5.46-2.14S37.58,33.49,37.58,33.49z"/>
		<path class="st4" d="M43.52,70.02c0,0-5.05,1.6-4.52,3.74c0.53,2.14,1.43,4.46,3.03,4.46s2.67,2.14,0.71,4.99
			c-1.96,2.85,3.92,3.49,4.72,2.55s1.52-2.37,4.19-2.72s3.21-1.25,3.03-3.03c-0.18-1.78-1.96-3.21-1.6-4.99s0.95-3.92,1.64-4.99
			s2.82-4.29,0.68-4.19c-2.14,0.09-4.63,4.55-5.88,3.66S43.52,70.02,43.52,70.02z"/>
		<path class="st4" d="M18.04,39.72c0,0,4.97-3.56,8.42-4.99s10.05-5.54,11.29-4.64c1.25,0.9,9.45,0.88,10.69,0
			c1.25-0.88,6.24-4.8,1.96-4.8s-6.95,1.96-9.27,1.96s-5.58,0.97-7.25,0.84c-1.66-0.13-8.09,3.61-9.25,4.42
			C23.5,33.31,18.04,39.72,18.04,39.72z"/>
		<path class="st1" d="M44,42.01c0,0-0.92,4.46,0,5.07s4.15,1.84,4.15,1.84s4.15-2.15,4.61-3.46c0.46-1.31,2.61-4.07,0-4.07
			S44,42.01,44,42.01z"/>
		<path class="st1" d="M25.1,69.67c-0.46,1.08-0.15,4,1.54,4.15s2.15,3.25,5.69,2.16s2.77-7.69,2.77-7.69s-2-3.57-4.46-3.55
			c-2.46,0.02-5.92,2.17-5.73,3.55C25.1,69.67,25.1,69.67,25.1,69.67z"/>
		<path class="st1" d="M30.03,85.65c-2.21-0.24-2.62,3.53-1.24,3.69c1.38,0.15,3.23,1.38,3.23,2.3s2.3-0.92,2.3-1.69
			S34.34,86.12,30.03,85.65z"/>
		<path class="st1" d="M64.9,59.07c0,0-1.23,2.15,0,3.53c1.23,1.38,3.69,3.65,4,2.13c0.31-1.52-0.76-5.05-1.69-5.67
			S64.9,59.07,64.9,59.07z"/>
		<path class="st1" d="M83.95,44.01c0,0-3.84,0.31-3.84,2c0,1.69-0.46,5.14,0.61,5.26s3.07,2.73,4.61,1.96
			c1.54-0.77,4.76-2.16,4.3-4.54c-0.46-2.38-2-7.14-3.84-5.91C83.95,44.01,83.95,44.01,83.95,44.01z"/>
		<path class="st1" d="M84.85,30.03c0.8,0,4.26,1.38,4.83,0s6.87-2.46,4.1-3.84s-3.38-3.38-5.22-1.84s-3.43,1.6-3.71,2.87
			C84.57,28.49,84.85,30.03,84.85,30.03z"/>
		<path class="st1" d="M107.46,36.33c-0.92,1.69-1.69,3.53-1.38,5.07s0.46,3.53,2,3.76s5.53,1.31,6.15,0
			c0.61-1.31,2.15-1.98,1.69-4.1s-2.15-5.04-3.53-4.74S107.46,36.33,107.46,36.33z"/>
		<path class="st1" d="M111.76,58.8c0,0-4.15,1.56-3.07,3.22c1.08,1.66,1.38,3.09,3.07,3.22s5.84-0.5,5.84-0.5s1.54-4.13,0-4.59
			S111.76,58.8,111.76,58.8z"/>
		<path class="st1" d="M92.94,69.68c0,0,0.73-4.37-1.25-4.27c-1.98,0.1-3.37-0.35-4.33,1.04c-0.96,1.4-2.49,5.31-2.49,5.31
			s2.8,3.4,3.97,2.3C90.02,72.95,92.94,69.68,92.94,69.68z"/>
		<path class="st1" d="M108.51,19.73c-1.67-0.31-4.11,1.08-2.5,2c1.61,0.92,3,3.04,4.99,2.06c1.99-0.98,1.08-6.05,0-6.97
			C109.92,15.89,108.51,19.73,108.51,19.73z"/>
	</g>
</g>
<g id="Layer_5">
	<g>
		<path class="st1" d="M146.1,18.66c0-5.74,4.39-9.81,10.38-9.81c3.48,0,6.28,1.27,8.11,3.56l-3.39,3.07
			c-1.19-1.43-2.64-2.21-4.45-2.21c-3.1,0-5.25,2.16-5.25,5.39c0,3.23,2.16,5.39,5.25,5.39c1.81,0,3.26-0.78,4.45-2.21l3.39,3.07
			c-1.83,2.29-4.63,3.56-8.11,3.56C150.49,28.47,146.1,24.4,146.1,18.66z"/>
		<path class="st1" d="M181.69,13.48v14.61h-4.88v-1.46c-0.97,1.16-2.4,1.7-4.31,1.7c-3.96,0-7.17-2.91-7.17-7.57
			c0-4.63,3.21-7.52,7.17-7.52c1.7,0,3.07,0.48,4.07,1.51v-1.27H181.69z M176.65,20.76c0-2.21-1.35-3.45-3.07-3.45
			s-3.07,1.24-3.07,3.45c0,2.24,1.35,3.5,3.07,3.5S176.65,23,176.65,20.76z"/>
		<path class="st1" d="M194.76,13.24v4.61c-0.46-0.05-0.78-0.08-1.16-0.08c-2.07,0-3.5,1.05-3.5,3.61v6.71h-5.12V13.48h4.88v1.75
			C190.91,13.91,192.6,13.24,194.76,13.24z"/>
		<path class="st1" d="M221.78,19.74v8.35h-5.12v-7.52c0-2.1-0.86-2.99-2.21-2.99c-1.48,0-2.56,1-2.56,3.26v7.25h-5.12v-7.52
			c0-2.1-0.84-2.99-2.21-2.99c-1.51,0-2.59,1-2.59,3.26v7.25h-5.12V13.48h4.88v1.54c1.1-1.19,2.64-1.78,4.37-1.78
			c1.99,0,3.69,0.73,4.72,2.29c1.16-1.46,2.96-2.29,5.07-2.29C219.28,13.24,221.78,15.21,221.78,19.74z"/>
		<path class="st1" d="M236.41,23.16l2.67,2.8c-1.37,1.56-3.42,2.37-6.2,2.37c-5.2,0-8.57-3.21-8.57-7.57
			c0-4.39,3.45-7.52,8.08-7.52c4.2,0,7.73,2.67,7.76,7.44l-10.43,1.99c0.57,1.19,1.7,1.75,3.31,1.75
			C234.47,24.42,235.42,24.02,236.41,23.16z M229.33,20.06l5.93-1.16c-0.35-1.21-1.4-2.02-2.83-2.02
			C230.67,16.88,229.49,17.98,229.33,20.06z"/>
		<path class="st1" d="M242.53,22.97V8.09h5.12v14.6c0,1.1,0.59,1.67,1.59,1.67c0.43,0,0.89-0.13,1.16-0.27l0.21,3.85
			c-0.83,0.27-1.59,0.38-2.4,0.38C244.68,28.33,242.53,26.47,242.53,22.97z"/>
		<path class="st1" d="M146.1,49.19c0-5.74,4.39-9.81,10.38-9.81c3.48,0,6.28,1.27,8.11,3.56l-3.39,3.07
			c-1.19-1.43-2.64-2.21-4.45-2.21c-3.1,0-5.25,2.16-5.25,5.39s2.16,5.39,5.25,5.39c1.81,0,3.26-0.78,4.45-2.21l3.39,3.07
			c-1.83,2.29-4.63,3.56-8.11,3.56C150.49,59,146.1,54.93,146.1,49.19z"/>
		<path class="st1" d="M165.33,51.3c0-4.39,3.48-7.52,8.25-7.52c4.82,0,8.25,3.13,8.25,7.52c0,4.42-3.42,7.57-8.25,7.57
			C168.81,58.87,165.33,55.72,165.33,51.3z M176.65,51.3c0-2.21-1.32-3.45-3.07-3.45c-1.72,0-3.07,1.24-3.07,3.45
			c0,2.24,1.35,3.5,3.07,3.5C175.33,54.8,176.65,53.53,176.65,51.3z"/>
		<path class="st1" d="M183.28,51.3c0-4.39,3.48-7.52,8.25-7.52c4.82,0,8.25,3.13,8.25,7.52c0,4.42-3.42,7.57-8.25,7.57
			C186.76,58.87,183.28,55.72,183.28,51.3z M194.6,51.3c0-2.21-1.32-3.45-3.07-3.45c-1.72,0-3.07,1.24-3.07,3.45
			c0,2.24,1.35,3.5,3.07,3.5C193.28,54.8,194.6,53.53,194.6,51.3z"/>
		<path class="st1" d="M208.77,53.51l-1.51,1.54v3.58h-5.12V38.63h5.12v10.48l5.23-5.09h6.06l-6.06,6.25l6.58,8.35h-6.2
			L208.77,53.51z"/>
		<path class="st1" d="M220,39.68c0-1.54,1.24-2.72,3.13-2.72c1.89,0,3.12,1.1,3.12,2.64c0,1.62-1.24,2.8-3.12,2.8
			C221.24,42.4,220,41.22,220,39.68z M220.57,44.02h5.12v14.61h-5.12V44.02z"/>
		<path class="st1" d="M240.19,53.69l2.67,2.8c-1.37,1.56-3.42,2.37-6.2,2.37c-5.2,0-8.57-3.21-8.57-7.57
			c0-4.39,3.45-7.52,8.08-7.52c4.2,0,7.73,2.67,7.76,7.44l-10.43,1.99c0.57,1.19,1.7,1.75,3.31,1.75
			C238.25,54.96,239.19,54.56,240.19,53.69z M233.1,50.6l5.93-1.16c-0.35-1.21-1.4-2.02-2.83-2.02
			C234.45,47.42,233.26,48.52,233.1,50.6z"/>
		<path class="st1" d="M146.1,79.73c0-5.74,4.39-9.81,10.38-9.81c3.48,0,6.28,1.27,8.11,3.56l-3.39,3.07
			c-1.19-1.43-2.64-2.21-4.45-2.21c-3.1,0-5.25,2.16-5.25,5.39s2.16,5.39,5.25,5.39c1.81,0,3.26-0.78,4.45-2.21l3.39,3.07
			c-1.83,2.29-4.63,3.56-8.11,3.56C150.49,89.54,146.1,85.47,146.1,79.73z"/>
		<path class="st1" d="M165.33,81.83c0-4.39,3.48-7.52,8.25-7.52c4.82,0,8.25,3.13,8.25,7.52c0,4.42-3.42,7.57-8.25,7.57
			C168.81,89.4,165.33,86.25,165.33,81.83z M176.65,81.83c0-2.21-1.32-3.45-3.07-3.45c-1.72,0-3.07,1.24-3.07,3.45
			c0,2.24,1.35,3.5,3.07,3.5C175.33,85.34,176.65,84.07,176.65,81.83z"/>
		<path class="st1" d="M209.12,80.81v8.35H204v-7.52c0-2.1-0.86-2.99-2.21-2.99c-1.48,0-2.56,1-2.56,3.26v7.25h-5.12v-7.52
			c0-2.1-0.84-2.99-2.21-2.99c-1.51,0-2.59,1-2.59,3.26v7.25h-5.12V74.56h4.88v1.54c1.1-1.19,2.64-1.78,4.37-1.78
			c1.99,0,3.69,0.73,4.72,2.29c1.16-1.46,2.96-2.29,5.07-2.29C206.62,74.31,209.12,76.28,209.12,80.81z"/>
		<path class="st1" d="M228.71,81.86c0,4.63-3.21,7.54-7.17,7.54c-1.7,0-3.07-0.51-4.07-1.54v6.52h-5.12V74.56h4.88v1.46
			c0.97-1.16,2.4-1.7,4.31-1.7C225.5,74.31,228.71,77.22,228.71,81.86z M223.54,81.86c0-2.21-1.35-3.48-3.07-3.48
			s-3.07,1.27-3.07,3.48s1.35,3.48,3.07,3.48S223.54,84.07,223.54,81.86z"/>
		<path class="st1" d="M246.52,74.56v14.61h-4.88v-1.46c-0.97,1.16-2.4,1.7-4.31,1.7c-3.96,0-7.17-2.91-7.17-7.57
			c0-4.64,3.21-7.52,7.17-7.52c1.7,0,3.07,0.49,4.07,1.51v-1.27H246.52z M241.48,81.83c0-2.21-1.35-3.45-3.07-3.45
			s-3.07,1.24-3.07,3.45c0,2.24,1.35,3.5,3.07,3.5S241.48,84.07,241.48,81.83z"/>
		<path class="st1" d="M265.35,80.81v8.35h-5.12v-7.52c0-2.1-0.92-2.99-2.4-2.99c-1.64,0-2.91,1.02-2.91,3.45v7.06h-5.12V74.56h4.88
			v1.59c1.16-1.21,2.8-1.83,4.63-1.83C262.74,74.31,265.35,76.28,265.35,80.81z"/>
		<path class="st1" d="M283.92,74.56v11.94c0,5.52-3.1,8.14-8.41,8.14c-2.78,0-5.36-0.65-7.11-1.91l1.86-3.58
			c1.16,0.97,3.07,1.56,4.77,1.56c2.64,0,3.77-1.24,3.77-3.53v-0.32c-1.1,1.05-2.53,1.56-4.1,1.56c-3.58,0-6.2-2.05-6.2-6.68v-7.17
			h5.12v6.33c0,2.29,0.89,3.18,2.42,3.18c1.51,0,2.75-1.02,2.75-3.45v-6.06H283.92z"/>
	</g>
</g>
</svg>
